<svg xmlns="http://www.w3.org/2000/svg" width="400" height="80" viewBox="0 0 400 80" role="img" aria-label="views, last 30 days, max 156"><title>views, last 30 days (max 156)</title><rect width="400" height="80" fill="#0d1117" rx="6"/><polyline fill="none" stroke="#f5c400" stroke-width="2" points="4.0,72.3 17.5,75.1 31.0,75.5 44.6,69.5 58.1,75.5 71.6,69.5 85.1,72.8 98.6,72.8 112.1,75.5 125.7,76.0 139.2,74.6 152.7,70.9 166.2,4.0 179.7,62.2 193.2,70.0 206.8,74.2 220.3,73.2 233.8,70.9 247.3,75.5 260.8,74.2 274.3,75.5 287.9,70.5 301.4,73.7 314.9,72.8 328.4,72.8 341.9,70.9 355.4,73.2 369.0,72.8 382.5,73.2 396.0,76.0"/></svg>