<svg xmlns="http://www.w3.org/2000/svg" width="400" height="80" viewBox="0 0 400 80" role="img" aria-label="views, last 30 days, max 62"><title>views, last 30 days (max 62)</title><rect width="400" height="80" fill="#0d1117" rx="6"/><polyline fill="none" stroke="#f5c400" stroke-width="2" points="4.0,57.4 17.5,60.9 31.0,59.7 44.6,60.9 58.1,65.5 71.6,66.7 85.1,70.2 98.6,4.0 112.1,64.4 125.7,51.6 139.2,63.2 152.7,60.9 166.2,71.4 179.7,70.2 193.2,60.9 206.8,73.7 220.3,43.5 233.8,64.4 247.3,47.0 260.8,47.0 274.3,64.4 287.9,72.5 301.4,73.7 314.9,52.8 328.4,63.2 341.9,64.4 355.4,72.5 369.0,71.4 382.5,72.5 396.0,76.0"/></svg>