<svg xmlns="http://www.w3.org/2000/svg" width="400" height="80" viewBox="0 0 400 80" role="img" aria-label="views, last 30 days, max 28"><title>views, last 30 days (max 28)</title><rect width="400" height="80" fill="#0d1117" rx="6"/><polyline fill="none" stroke="#f5c400" stroke-width="2" points="4.0,63.1 17.5,42.6 31.0,70.9 44.6,4.0 58.1,50.3 71.6,11.7 85.1,11.7 98.6,50.3 112.1,68.3 125.7,70.9 139.2,24.6 152.7,47.7 166.2,50.3 179.7,68.3 193.2,65.7 206.8,68.3 220.3,63.1 233.8,63.1 247.3,60.6 260.8,65.7 274.3,58.0 287.9,60.6 301.4,63.1 314.9,60.6 328.4,68.3 341.9,60.6 355.4,55.4 369.0,68.3 382.5,65.7 396.0,76.0"/></svg>